<?xml version="1.0" encoding="utf-8"?>
<!-- Generator: Adobe Illustrator 19.0.0, SVG Export Plug-In . SVG Version: 6.00 Build 0)  -->
<svg version="1.1" id="Layer_1" xmlns="http://www.w3.org/2000/svg" xmlns:xlink="http://www.w3.org/1999/xlink" x="0px" y="0px"
	 viewBox="0 0 63 60" style="enable-background:new 0 0 63 60;" xml:space="preserve">
<style type="text/css">
	.st0{fill:#FFFFFF;}
</style>
<g id="XMLID_2_">
	<path id="XMLID_3_" class="st0" d="M29.7,40C29.7,40,29.7,40,29.7,40C29.7,40,29.7,40,29.7,40z"/>
	<path id="XMLID_5_" class="st0" d="M29.7,40"/>
	<path id="XMLID_27_" class="st0" d="M29.7,40C29.7,40,29.7,40,29.7,40C29.7,40,29.7,40,29.7,40z"/>
	<path id="XMLID_33_" class="st0" d="M34.8,49.1C34.7,49.1,34.7,49,34.8,49.1c-2.6-2.4-4.5-6.1-5-9.1h-1.5c0,0,0-0.1,0-0.1
		c0,0,0,0.1,0,0.1h0c0,0.3,0.1,0.6,0.2,0.9c0.6,3.4,2.1,6,4.1,8.2c0.4,0.4,0.8,0.8,1.2,1.2c-2.4,2.4-5.5,4.2-8.9,5
		c-0.2,0-0.3,0.1-0.5,0.1c-0.6,0.2-3.2,0.3-3.2,0.3c-10.3,0-19.4-8.5-19.4-18.9c0-8.8,6-16,14.3-18c0.1,0,0.1,0,0.2,0
		c0-0.6,0.1-1.1,0.2-1.6C7.1,19,0.1,27.2,0.1,37c0,11.2,9.1,20.3,20.3,20.3c5.7,0,10.8-2.3,14.5-6.1c0,0,0,0,0,0
		c2.9,2.2,6.6,3.6,10.6,3.6c9.6,0,17.5-7.8,17.5-17.5c0-8-5.4-14.7-12.8-16.8c0-0.1,0-0.1,0-0.2c0-9.4-7.7-17.1-17.1-17.1
		c-8.4,0-15.3,6-16.8,14c-0.1,0.5-0.2,1.1-0.2,1.7c0.5-0.1,1-0.2,1.6-0.3c0.9-0.1,1.8-0.2,2.8-0.2c5.3,0,10.1,2.3,13.6,5.8
		c0.4,0.4,0.7,0.8,1,1.2c0.4-0.3,0.8-0.7,1.2-1c-0.3-0.4-0.7-0.8-1-1.2c-3.7-3.9-8.9-6.4-14.8-6.4c-0.9,0-1.7,0.1-2.5,0.2
		c1.6-6.9,7.8-12.1,15.2-12.1c8.5,0,15.4,6.9,15.5,15.4c0,0.1,0,0.1,0,0.2c0,0.5,0,0.9-0.1,1.4c0.5,0.1,1,0.2,1.5,0.4
		c6.5,2,11.3,8.1,11.3,15.2c0,8.8-7.1,15.9-15.9,15.9c-3.6,0-6.9-1.2-9.5-3.2C35.5,49.7,35.1,49.4,34.8,49.1
		C34.7,49.1,34.7,49.1,34.8,49.1C34.7,49.1,34.7,49.1,34.8,49.1"/>
</g>
</svg>
